<?xml version="1.0" encoding="utf-8"?>
<!-- Generator: Adobe Illustrator 16.0.0, SVG Export Plug-In . SVG Version: 6.00 Build 0)  -->
<!DOCTYPE svg PUBLIC "-//W3C//DTD SVG 1.1//EN" "http://www.w3.org/Graphics/SVG/1.1/DTD/svg11.dtd">
<svg version="1.1" id="Capa_1" xmlns="http://www.w3.org/2000/svg" xmlns:xlink="http://www.w3.org/1999/xlink" x="0px" y="0px"
	 width="960px" height="560px" viewBox="0 0 960 560" enable-background="new 0 0 960 560" xml:space="preserve">
<path stroke="#0000FF" stroke-width="3" stroke-miterlimit="10" d="M485.652,297.354c12.954,0,26.312-4.048,39.266-13.764
	c2.025-1.617,2.429-0.605,1.216,0.406c-15.991,14.774-32.991,20.645-49.388,20.645c-42.098,0-81.768-38.456-99.579-64.97
	c-1.214-1.621-2.834-4.049-4.453-6.681c-18.823,24.896-35.419,48.982-35.419,53.84c0,1.212,0.203,2.023,2.023,2.023
	c5.667,0,9.918-1.013,15.585-4.25c-4.655,4.654-12.751,10.521-19.835,10.521c-6.071,0-6.881-5.059-6.881-8.498
	c0-13.964,19.835-46.753,36.229-70.231l-0.809-2.227c-1.62-4.656-2.632-8.096-2.227-10.119
	c2.631-13.157,18.014-19.027,14.775-15.181c-1.214,1.619-1.822,4.452-1.214,7.69c0.203,1.215,0.607,2.631,1.214,4.047
	c23.478-31.167,62.947-78.125,81.162-78.125c7.286,0,13.763,3.239,17.406,7.287c-12.549-5.87-67.196,59.101-88.853,86.422
	c46.146-2.227,133.986-44.121,131.963-80.553c-1.417-22.669-32.182-33.194-55.458-33.194c-76.101,0-153.214,61.732-153.214,85.412
	c0,8.097,6.477,13.561,11.333,13.966c0,0-0.607,1.013-5.262,1.013c-13.763,0-20.442-8.704-20.442-19.432
	c0-36.432,81.971-86.828,159.49-86.828c27.323,0,73.469,9.917,75.697,46.754c2.226,38.05-73.066,81.97-131.964,81.97
	c-4.251,0-8.299-0.203-12.347-0.606c1.621,3.441,3.847,6.881,5.871,9.917C408.135,258.897,445.375,297.354,485.652,297.354z"/>
<path stroke="#0000FF" stroke-width="3" stroke-miterlimit="10" d="M648.919,304.872c-5.394,0-8.707-6.842-8.707-13.269
	c0-4.974,9.743-14.094,11.815-14.094c0.414,0-5.803,7.669-4.56,9.328c14.094,0,46.844-18.448,46.844-35.239
	c0-9.327-8.084-14.717-20.935-14.717c-63.844,0-175.569,108.204-171.01,166.036c1.451,17.409,14.303,22.178,30.266,22.178
	c38.968,0,102.398-35.029,151.522-74.83c0.208-0.206,2.49,0.831,1.659,1.245c-36.485,35.652-114.628,88.303-160.024,87.266
	c-22.18-0.415-41.457-10.156-42.697-35.445c-4.146-72.549,118.355-171.631,188.212-171.631c18.033,0,30.677,7.669,30.677,23.63
	C701.981,276.059,669.231,304.872,648.919,304.872z"/>
<path stroke="#0000FF" stroke-width="3" stroke-miterlimit="10" d="M267.427,63.06c-87.05,50.079-163.345,137.347-163.345,149.808
	c0,2.8,12.898-4.079,12.032-3.221c-5.583,7.087-16.976,10.526-21.063,10.526c-3.868,0-7.088-3.868-7.088-7.953
	c0-27.513,109.179-155.819,109.179-186.34c0-10.107-10.098-11.822-18.052-11.822c-60.396,0-159.048,101.015-159.048,114.561
	c0,2.573,2.144,3.866,4.086,3.866c2.144,0,8.383-1.074,10.527-1.722c0,1.933-12.898,7.098-18.052,7.098
	c-6.668,0-10.965-5.376-10.965-11.824C5.64,91.429,115.047,8.686,179.091,8.686c20.423,0,31.378,10.316,31.378,27.939
	c0,23.854-48.783,91.128-78.018,129.393C182.748,104.975,281.83,34.902,299.243,34.902c5.801,0,17.195,12.04,16.757,17.632
	c-1.497-2.582-4.297-2.582-5.583-2.582c-12.898,0-68.139,71.999-91.345,118.858c-7.526,15.261-12.47,30.302-12.47,40.619
	c0,18.49,12.679,23.215,30.521,23.215c2.153,0,4.297,0,6.45-0.22c24.93-1.286,49.431-16.976,62.11-23.206
	c-20.844,18.053-52.442,27.292-64.473,28.151c-2.364,0.218-4.734,0.218-6.878,0.218c-23.215,0-40.838-9.24-40.838-33.959
	c0-16.977,7.954-39.762,19.775-62.119C228.312,112.711,250.022,81.979,267.427,63.06z"/>
<path stroke="#0000FF" stroke-width="3" stroke-miterlimit="10" d="M748.427,489.593c-23.282,26.284-34.743,43.216-34.743,48.158
	c0,2.288,10.579-3.355,9.876-2.652c-4.41,5.825-13.758,8.646-17.284,8.646c-3.001,0-5.824-3.173-5.824-6.526
	c0-22.577,90.306-129.284,90.306-154.331c0-8.294-8.106-9.702-14.634-9.702c-49.39,0-130.7,82.896-130.7,94.013
	c0,2.111,1.94,3.173,3.526,3.173c1.767,0,6.88-0.882,8.647-1.413c0,1.586-10.585,5.823-14.643,5.823
	c-5.646,0-9.351-4.41-9.351-9.701c0-28.4,89.776-96.304,142.52-96.304c16.754,0,25.75,8.466,25.75,22.929
	c0,16.753-29.283,59.264-52.735,91.01c50.797-56.966,95.771-89.07,103.706-89.07c5.645,0,14.821,5.471,15.697,12.523
	c-0.704-1.056-2.642-1.407-3.878-1.407c-7.051,0-51.502,64.549-69.848,104.058c35.983-60.319,118.004-122.937,129.814-122.937
	c5.997,0,14.29,9.348,14.994,13.407c-1.586-1.057-4.056-1.057-5.644-1.057c-15.869,0-87.305,89.954-87.305,130.341
	c0,16.932,7.401,23.812,26.282,23.288c16.753-0.53,42.502-12.173,54.674-20.638c-20.989,19.401-49.03,24.695-55.205,25.4
	c-1.94,0.17-3.706,0.349-5.473,0.349c-18.692,0-31.567-11.819-31.567-32.097c0-34.046,34.74-86.608,49.736-101.245
	c-25.4,11.641-93.482,83.953-93.482,101.417c0,3.352-12.17-2.644-12.17-9.874c0-17.816,40.742-86.961,54.149-100.008
	C809.105,428.391,773.652,461.904,748.427,489.593z"/>
<path stroke="#0000FF" stroke-miterlimit="10" d="M73.138,271.72 M24.705,262.041c-3.221-3.981-5.506-7.79-6.859-11.418
	c-1.346-3.625-2.103-7.008-2.265-10.154c-0.165-3.143,0.13-6.012,0.871-8.618c0.744-2.603,1.74-4.743,2.983-6.419
	c3.154-4.57,8.377-7.521,15.667-8.865c7.292-1.336,16.186-1.228,26.672,0.325c10.494,1.557,22.352,4.398,35.565,8.521
	c13.223,4.127,27.377,9.395,42.47,15.796C154.9,247.615,170.62,255,186.99,263.379c16.36,8.371,32.967,17.543,49.818,27.505
	c22.518,13.526,42.654,26.188,60.402,37.987c17.74,11.796,34.232,23.114,49.48,33.959c15.243,10.842,29.873,21.476,43.89,31.896
	c14.01,10.423,28.545,21.019,43.603,31.796c15.054,10.774,31.186,21.945,48.392,33.51c17.202,11.563,36.712,23.942,58.533,37.142
	c8.187,4.977,16.663,9.807,25.425,14.495c8.76,4.691,17.556,9.087,26.393,13.197c2.425-0.706,4.408-1.942,5.957-3.703
	c1.245-1.679,1.558-3.709,0.95-6.086c-0.61-2.383-2.102-5.019-4.467-7.909c-2.375-2.895-5.447-5.869-9.232-8.935
	c-3.787-3.068-8.285-6.063-13.48-8.985c-1.768-1.143-4.794-2.658-9.099-4.554c-4.295-1.892-8.217-3.178-11.755-3.855
	c1.295-1.107,3.024-1.667,5.177-1.682c2.147-0.019,4.418,0.283,6.812,0.905c2.392,0.621,4.717,1.403,6.985,2.354
	c2.263,0.946,4.104,1.755,5.514,2.416c7.286,3.631,13.569,7.49,18.857,11.584c5.277,4.092,9.488,8.105,12.631,12.04
	c3.14,3.938,5.125,7.583,5.96,10.947c0.829,3.362,0.564,6.117-0.789,8.268c-0.644,0.87-1.342,1.64-2.079,2.319
	c-0.743,0.677-1.614,1.211-2.614,1.601c8.032,3.268,15.667,6.031,22.905,8.289c7.236,2.256,13.729,3.756,19.478,4.498
	c5.746,0.739,10.654,0.69,14.729-0.15c4.066-0.846,6.868-2.775,8.406-5.803c1.003-1.999,0.763-4.473-0.73-7.424
	c-1.496-2.952-5.023-6.444-10.585-10.481c6.131,2.313,11.416,4.952,15.869,7.922c4.448,2.969,7.891,5.941,10.321,8.914
	c2.426,2.972,3.897,5.797,4.405,8.473c0.507,2.679-0.119,4.882-1.876,6.61c-2.661,2.625-6.861,4.037-12.595,4.245
	c-5.738,0.205-12.58-0.586-20.525-2.37s-16.849-4.52-26.709-8.208c-9.861-3.685-20.243-8.111-31.146-13.272
	c-8.676-0.158-20.279-3.499-34.81-10.017c-14.533-6.522-30.684-15.261-48.45-26.223c-7.535-4.584-16.273-10.426-26.212-17.521
	c-9.949-7.097-20.566-14.891-31.854-23.371c-11.294-8.486-22.922-17.394-34.888-26.729c-11.969-9.336-23.615-18.457-34.947-27.368
	c-11.332-8.914-22.093-17.395-32.278-25.442c-10.19-8.049-19.115-15.077-26.777-21.084c-1.11-0.75-1.568-1.246-1.383-1.496
	c-13.432-9.447-27.649-19.117-42.643-29.007c-15.003-9.891-31.518-20.302-49.545-31.239c-15.439-9.301-30.978-17.988-46.609-26.063
	c-15.637-8.074-30.813-15.246-45.525-21.519c-14.716-6.27-28.651-11.514-41.8-15.731c-13.15-4.218-25.043-7.168-35.676-8.855
	c-10.632-1.685-19.643-1.952-27.03-0.806c-7.388,1.148-12.633,3.978-15.743,8.482c-2.231,3.329-3.729,6.871-4.495,10.624
	c-0.769,3.754-0.235,7.925,1.588,12.506c-0.196-1.011-0.189-1.904,0.026-2.674c0.213-0.765,0.49-1.54,0.835-2.323 M482.377,463.662
	c-17.533-11.769-33.986-23.142-49.362-34.121c-15.381-10.984-30.231-21.804-44.538-32.463c-14.313-10.662-29.053-21.462-44.22-32.41
	c7.987,6.21,16.885,13.118,26.689,20.725c9.803,7.604,20.066,15.553,30.792,23.84c10.72,8.29,21.589,16.621,32.604,24.996
	c11.018,8.374,21.683,16.34,32.002,23.893c10.318,7.55,20.005,14.434,29.063,20.648c9.051,6.211,16.877,11.286,23.466,15.218
	c6.091,3.635,12.179,7.198,18.264,10.695c6.079,3.494,11.94,6.648,17.571,9.468c5.631,2.818,10.953,5.18,15.957,7.083
	c5.007,1.902,9.533,3.16,13.596,3.778c-14.009-7.065-28.381-15.082-43.114-24.053C519.498,487.862,499.902,475.428,482.377,463.662z
	"/>
</svg>
